<?xml version="1.0" encoding="UTF-8" standalone="no"?>
<!DOCTYPE svg PUBLIC "-//W3C//DTD SVG 1.0//EN" "http://www.w3.org/TR/2001/PR-SVG-20010719/DTD/svg10.dtd">
<svg width="41cm" height="40cm" viewBox="-2 68 806 793" xmlns="http://www.w3.org/2000/svg" xmlns:xlink="http://www.w3.org/1999/xlink">
  <g>
    <rect style="fill: #ffffff" x="240" y="560" width="160" height="60"/>
    <rect style="fill: none; fill-opacity:0; stroke-width: 2; stroke: #000000" x="240" y="560" width="160" height="60"/>
  </g>
  <text style="fill: #000000;text-anchor:middle;font-size:12.8;font-family:sanserif;font-style:normal;font-weight:normal" x="320" y="594.425">
    <tspan x="320" y="594.425">gestion voiture</tspan>
  </text>
  <g>
    <rect style="fill: #ffffff" x="240" y="180" width="160" height="60"/>
    <rect style="fill: none; fill-opacity:0; stroke-width: 2; stroke: #000000" x="240" y="180" width="160" height="60"/>
  </g>
  <text style="fill: #000000;text-anchor:middle;font-size:12.8;font-family:sanserif;font-style:normal;font-weight:normal" x="320" y="214.425">
    <tspan x="320" y="214.425">gestion des menus</tspan>
  </text>
  <g>
    <line style="fill: none; fill-opacity:0; stroke-width: 2; stroke: #000000" x1="320" y1="501.003" x2="320" y2="549.261"/>
    <polygon style="fill: #000000" points="320,556.761 315,546.761 320,549.261 325,546.761 "/>
    <polygon style="fill: none; fill-opacity:0; stroke-width: 2; stroke: #000000" points="320,556.761 315,546.761 320,549.261 325,546.761 "/>
  </g>
  <g>
    <rect style="fill: #ffffff" x="240" y="440" width="160" height="60"/>
    <rect style="fill: none; fill-opacity:0; stroke-width: 2; stroke: #000000" x="240" y="440" width="160" height="60"/>
  </g>
  <text style="fill: #000000;text-anchor:middle;font-size:12.8;font-family:sanserif;font-style:normal;font-weight:normal" x="320" y="474.425">
    <tspan x="320" y="474.425">gestion checkpoints</tspan>
  </text>
  <g>
    <line style="fill: none; fill-opacity:0; stroke-width: 2; stroke: #000000" x1="320" y1="240.984" x2="320" y2="309.28"/>
    <polygon style="fill: #000000" points="320,316.78 315,306.78 320,309.28 325,306.78 "/>
    <polygon style="fill: none; fill-opacity:0; stroke-width: 2; stroke: #000000" points="320,316.78 315,306.78 320,309.28 325,306.78 "/>
  </g>
  <g>
    <rect style="fill: #ffffff" x="440" y="320" width="180" height="60"/>
    <rect style="fill: none; fill-opacity:0; stroke-width: 2; stroke: #000000" x="440" y="320" width="180" height="60"/>
  </g>
  <text style="fill: #000000;text-anchor:middle;font-size:12.8;font-family:sanserif;font-style:normal;font-weight:normal" x="530" y="354.425">
    <tspan x="530" y="354.425">lecture musique</tspan>
  </text>
  <g>
    <line style="fill: none; fill-opacity:0; stroke-width: 2; stroke: #000000" x1="366.476" y1="240.984" x2="475.423" y2="313.616"/>
    <polygon style="fill: #000000" points="481.664,317.776 470.57,316.389 475.423,313.616 476.117,308.069 "/>
    <polygon style="fill: none; fill-opacity:0; stroke-width: 2; stroke: #000000" points="481.664,317.776 470.57,316.389 475.423,313.616 476.117,308.069 "/>
  </g>
  <g>
    <rect style="fill: #ffffff" x="240" y="320" width="160" height="60"/>
    <rect style="fill: none; fill-opacity:0; stroke-width: 2; stroke: #000000" x="240" y="320" width="160" height="60"/>
  </g>
  <text style="fill: #000000;text-anchor:middle;font-size:12.8;font-family:sanserif;font-style:normal;font-weight:normal" x="320" y="354.425">
    <tspan x="320" y="354.425">gestion map</tspan>
  </text>
  <g>
    <line style="fill: none; fill-opacity:0; stroke-width: 2; stroke: #000000" x1="320" y1="381.003" x2="320" y2="429.261"/>
    <polygon style="fill: #000000" points="320,436.761 315,426.761 320,429.261 325,426.761 "/>
    <polygon style="fill: none; fill-opacity:0; stroke-width: 2; stroke: #000000" points="320,436.761 315,426.761 320,429.261 325,426.761 "/>
  </g>
  <g>
    <rect style="fill: #ffffff" x="440" y="180" width="180" height="60" rx="40" ry="40"/>
    <rect style="fill: none; fill-opacity:0; stroke-width: 2; stroke-linejoin: round; stroke: #000000" x="440" y="180" width="180" height="60" rx="40" ry="40"/>
  </g>
  <text style="fill: #000000;text-anchor:middle;font-size:12.8;font-family:sanserif;font-style:normal;font-weight:normal" x="530" y="206.425">
    <tspan x="530" y="206.425">fichier de configuration</tspan>
    <tspan x="530" y="222.425">audio et vidéo</tspan>
  </text>
  <g>
    <line style="fill: none; fill-opacity:0; stroke-width: 2; stroke-linejoin: round; stroke: #000000" x1="400.903" y1="210" x2="434.55" y2="210"/>
    <polyline style="fill: none; fill-opacity:0; stroke-width: 2; stroke: #000000" points="426.786,215 436.786,210 426.786,205 "/>
  </g>
  <g>
    <rect style="fill: #ffffff" x="20" y="300" width="180" height="100" rx="40" ry="40"/>
    <rect style="fill: none; fill-opacity:0; stroke-width: 2; stroke-linejoin: round; stroke: #000000" x="20" y="300" width="180" height="100" rx="40" ry="40"/>
  </g>
  <text style="fill: #000000;text-anchor:start;font-size:12.8;font-family:sanserif;font-style:normal;font-weight:normal" x="110" y="350">
    <tspan x="110" y="350"></tspan>
  </text>
  <text style="fill: #000000;text-anchor:middle;font-size:12.8;font-family:sanserif;font-style:normal;font-weight:normal" x="110" y="322.425">
    <tspan x="110" y="322.425">fichier de configuration</tspan>
    <tspan x="110" y="338.425">des touches</tspan>
    <tspan x="110" y="354.425">et du nombre de joueurs</tspan>
    <tspan x="110" y="370.425">et de choix des véhicules</tspan>
    <tspan x="110" y="386.425">et roues</tspan>
  </text>
  <g>
    <line style="fill: none; fill-opacity:0; stroke-width: 2; stroke-linejoin: round; stroke: #000000" x1="279.852" y1="241.004" x2="191.824" y2="308.983"/>
    <polyline style="fill: none; fill-opacity:0; stroke-width: 2; stroke: #000000" points="194.913,300.28 190.054,310.349 201.025,308.195 "/>
  </g>
  <g>
    <line style="fill: none; fill-opacity:0; stroke-width: 2; stroke: #000000" x1="240" y1="440" x2="191.446" y2="391.446"/>
    <polyline style="fill: none; fill-opacity:0; stroke-width: 2; stroke: #000000" points="200.472,393.401 189.865,389.865 193.401,400.472 "/>
  </g>
  <text style="fill: #000000;text-anchor:start;font-size:12.8;font-family:sanserif;font-style:normal;font-weight:normal" x="214.142" y="414.142">
    <tspan x="214.142" y="414.142"> lecture</tspan>
  </text>
  <g>
    <line style="fill: none; fill-opacity:0; stroke-width: 2; stroke: #000000" x1="530" y1="245.456" x2="530" y2="319.016"/>
    <polyline style="fill: none; fill-opacity:0; stroke-width: 2; stroke: #000000" points="535,253.22 530,243.22 525,253.22 "/>
  </g>
  <text style="fill: #000000;text-anchor:start;font-size:12.8;font-family:sanserif;font-style:normal;font-weight:normal" x="530" y="280">
    <tspan x="530" y="280"> lecture</tspan>
  </text>
  <g>
    <line style="fill: none; fill-opacity:0; stroke-width: 2; stroke: #000000" x1="0" y1="80" x2="75.5279" y2="80"/>
    <polyline style="fill: none; fill-opacity:0; stroke-width: 2; stroke: #000000" points="67.7639,85 77.7639,80 67.7639,75 "/>
  </g>
  <text style="fill: #000000;text-anchor:start;font-size:12.8;font-family:sanserif;font-style:normal;font-weight:normal" x="80" y="80">
    <tspan x="80" y="80"> acces</tspan>
  </text>
  <g>
    <line style="fill: none; fill-opacity:0; stroke-width: 2; stroke: #000000" x1="0" y1="120" x2="70.2639" y2="120"/>
    <polygon style="fill: #000000" points="77.7639,120 67.7639,125 70.2639,120 67.7639,115 "/>
    <polygon style="fill: none; fill-opacity:0; stroke-width: 2; stroke: #000000" points="77.7639,120 67.7639,125 70.2639,120 67.7639,115 "/>
  </g>
  <text style="fill: #000000;text-anchor:start;font-size:12.8;font-family:sanserif;font-style:normal;font-weight:normal" x="80" y="120">
    <tspan x="80" y="120"> appel</tspan>
  </text>
  <g>
    <rect style="fill: #ffffff" x="0" y="140" width="80" height="20" rx="40" ry="40"/>
    <rect style="fill: none; fill-opacity:0; stroke-width: 2; stroke-linejoin: round; stroke: #000000" x="0" y="140" width="80" height="20" rx="40" ry="40"/>
  </g>
  <text style="fill: #000000;text-anchor:start;font-size:12.8;font-family:sanserif;font-style:normal;font-weight:normal" x="80" y="150">
    <tspan x="80" y="150"> fichier de configuration</tspan>
    <tspan x="80" y="166">ou d'objet</tspan>
  </text>
  <g>
    <rect style="fill: #ffffff" x="460" y="560" width="190" height="60" rx="40" ry="40"/>
    <rect style="fill: none; fill-opacity:0; stroke-width: 2; stroke-linejoin: round; stroke: #000000" x="460" y="560" width="190" height="60" rx="40" ry="40"/>
  </g>
  <g>
    <line style="fill: none; fill-opacity:0; stroke-width: 2; stroke-linejoin: round; stroke: #000000" x1="400.896" y1="590" x2="454.528" y2="590"/>
    <polyline style="fill: none; fill-opacity:0; stroke-width: 2; stroke: #000000" points="446.764,595 456.764,590 446.764,585 "/>
  </g>
  <text style="fill: #000000;text-anchor:middle;font-size:12.8;font-family:sanserif;font-style:normal;font-weight:normal" x="555" y="586.425">
    <tspan x="555" y="586.425">fichier de configuration</tspan>
    <tspan x="555" y="602.425">véhicule</tspan>
  </text>
  <g>
    <rect style="fill: #ffffff" x="460" y="640" width="190" height="60" rx="40" ry="40"/>
    <rect style="fill: none; fill-opacity:0; stroke-width: 2; stroke-linejoin: round; stroke: #000000" x="460" y="640" width="190" height="60" rx="40" ry="40"/>
  </g>
  <g>
    <line style="fill: none; fill-opacity:0; stroke-width: 2; stroke-linejoin: round; stroke: #000000" x1="374.209" y1="620.977" x2="456.117" y2="667.781"/>
    <polyline style="fill: none; fill-opacity:0; stroke-width: 2; stroke: #000000" points="446.895,668.27 458.059,668.891 451.857,659.588 "/>
  </g>
  <text style="fill: #000000;text-anchor:middle;font-size:12.8;font-family:sanserif;font-style:normal;font-weight:normal" x="555" y="674.425">
    <tspan x="555" y="674.425">fichier du véhicule</tspan>
  </text>
  <g>
    <polyline style="fill: none; fill-opacity:0; stroke-width: 2; stroke: #000000" points="239.008,589.616 109,589 109.768,405.477 "/>
    <polyline style="fill: none; fill-opacity:0; stroke-width: 2; stroke: #000000" points="114.735,413.262 109.777,403.241 104.735,413.22 "/>
  </g>
  <text style="fill: #000000;text-anchor:start;font-size:12.8;font-family:sanserif;font-style:normal;font-weight:normal" x="114" y="516">
    <tspan x="114" y="516">lecture</tspan>
  </text>
  <g>
    <rect style="fill: #ffffff" x="460" y="720" width="190" height="60" rx="40" ry="40"/>
    <rect style="fill: none; fill-opacity:0; stroke-width: 2; stroke-linejoin: round; stroke: #000000" x="460" y="720" width="190" height="60" rx="40" ry="40"/>
  </g>
  <g>
    <rect style="fill: #ffffff" x="460" y="800" width="190" height="60" rx="40" ry="40"/>
    <rect style="fill: none; fill-opacity:0; stroke-width: 2; stroke-linejoin: round; stroke: #000000" x="460" y="800" width="190" height="60" rx="40" ry="40"/>
  </g>
  <g>
    <line style="fill: none; fill-opacity:0; stroke-width: 2; stroke-linejoin: round; stroke: #000000" x1="347.104" y1="620.977" x2="457.055" y2="746.634"/>
    <polyline style="fill: none; fill-opacity:0; stroke-width: 2; stroke: #000000" points="448.18,744.084 458.528,748.317 455.705,737.499 "/>
  </g>
  <g>
    <line style="fill: none; fill-opacity:0; stroke-width: 2; stroke: #000000" x1="338.085" y1="621.003" x2="457.747" y2="826.137"/>
    <polyline style="fill: none; fill-opacity:0; stroke-width: 2; stroke: #000000" points="449.516,821.95 458.873,828.069 458.153,816.911 "/>
  </g>
  <text style="fill: #000000;text-anchor:middle;font-size:12.8;font-family:sanserif;font-style:normal;font-weight:normal" x="555" y="746.425">
    <tspan x="555" y="746.425">fichier de configuration</tspan>
    <tspan x="555" y="762.425">roue</tspan>
  </text>
  <text style="fill: #000000;text-anchor:middle;font-size:12.8;font-family:sanserif;font-style:normal;font-weight:normal" x="555" y="834.425">
    <tspan x="555" y="834.425">fichier des roues</tspan>
  </text>
  <path style="fill: none; fill-opacity:0; stroke-width: 2; stroke: #000000" d="M 660 560 C 700,560 660,720 720,720"/>
  <path style="fill: none; fill-opacity:0; stroke-width: 2; stroke: #000000" d="M 660 860 C 700,860 660,720 720,720"/>
  <text style="fill: #000000;text-anchor:start;font-size:12.7998;font-family:sanserif;font-style:normal;font-weight:normal" x="740" y="720">
    <tspan x="740" y="720">en lecture</tspan>
  </text>
</svg>
